HIERARCHY
ROOT Hips
{
 OFFSET 0.000000 0.000000 0.000000
 CHANNELS 6 Xposition Yposition Zposition Yrotation Xrotation Zrotation
 JOINT Chest
 {
  OFFSET 0.000000 9.585900 0.002600
  CHANNELS 3 Yrotation Xrotation Zrotation
  JOINT Chest2
  {
   OFFSET 0.000000 9.601200 -0.005300
   CHANNELS 3 Yrotation Xrotation Zrotation
   JOINT Chest3
   {
    OFFSET 0.000000 9.561800 0.000000
    CHANNELS 3 Yrotation Xrotation Zrotation
    JOINT Chest4
    {
     OFFSET 0.000000 9.552100 0.000000
     CHANNELS 3 Yrotation Xrotation Zrotation
     JOINT Neck
     {
      OFFSET 0.000000 14.453000 0.000000
      CHANNELS 3 Yrotation Xrotation Zrotation
      JOINT Head
      {
       OFFSET 0.000000 8.936500 -0.011300
       CHANNELS 3 Yrotation Xrotation Zrotation
       End Site
       {
        OFFSET 0.000000 17.073600 -0.006000
       }
      }
     }
     JOINT RightCollar
     {
      OFFSET -2.921100 9.558500 0.000000
      CHANNELS 3 Yrotation Xrotation Zrotation
      JOINT RightShoulder
      {
       OFFSET -13.519700 0.000000 0.000000
       CHANNELS 3 Yrotation Xrotation Zrotation
       JOINT RightElbow
       {
        OFFSET 0.000000 -29.696600 0.000000
        CHANNELS 3 Yrotation Xrotation Zrotation
        JOINT RightWrist
        {
         OFFSET 0.000000 -24.004700 0.000000
         CHANNELS 3 Yrotation Xrotation Zrotation
         End Site
         {
          OFFSET 0.000000 -17.728500 0.000000
         }
        }
       }
      }
     }
     JOINT LeftCollar
     {
      OFFSET 2.921100 9.558500 0.000000
      CHANNELS 3 Yrotation Xrotation Zrotation
      JOINT LeftShoulder
      {
       OFFSET 13.519700 0.000000 0.000000
       CHANNELS 3 Yrotation Xrotation Zrotation
       JOINT LeftElbow
       {
        OFFSET 0.000000 -29.696600 0.000000
        CHANNELS 3 Yrotation Xrotation Zrotation
        JOINT LeftWrist
        {
         OFFSET 0.000000 -24.004700 0.000000
         CHANNELS 3 Yrotation Xrotation Zrotation
         End Site
         {
          OFFSET 0.000000 -17.728500 0.000000
         }
        }
       }
      }
     }
    }
   }
  }
 }
 JOINT RightHip
 {
  OFFSET -7.771700 -0.012900 -0.001300
  CHANNELS 3 Yrotation Xrotation Zrotation
  JOINT RightKnee
  {
   OFFSET 0.000000 -40.869800 0.001200
   CHANNELS 3 Yrotation Xrotation Zrotation
   JOINT RightAnkle
   {
    OFFSET 0.000000 -39.717900 0.002100
    CHANNELS 3 Yrotation Xrotation Zrotation
    JOINT RightToe
    {
     OFFSET 0.000000 -4.965400 11.033500
     CHANNELS 3 Yrotation Xrotation Zrotation
     End Site
     {
      OFFSET 0.000000 -1.423100 5.872300
     }
    }
   }
  }
 }
 JOINT LeftHip
 {
  OFFSET 7.771700 -0.012900 -0.001300
  CHANNELS 3 Yrotation Xrotation Zrotation
  JOINT LeftKnee
  {
   OFFSET 0.000000 -40.869800 0.001200
   CHANNELS 3 Yrotation Xrotation Zrotation
   JOINT LeftAnkle
   {
    OFFSET 0.000000 -39.717900 0.002100
    CHANNELS 3 Yrotation Xrotation Zrotation
    JOINT LeftToe
    {
     OFFSET 0.000000 -4.965400 11.033500
     CHANNELS 3 Yrotation Xrotation Zrotation
     End Site
     {
      OFFSET 0.000000 -1.423100 5.872300
     }
    }
   }
  }
 }
}
MOTION
Frames: 8
Frame Time: 0.008333
-17.047094 57.522732 71.402170 -177.987156 -28.900147 -0.613475 3.085829 17.524007 3.373526 0.356180 2.073738 0.252437 0.621661 3.428628 0.433877 3.020929 15.755036 2.305656 -2.454495 15.592986 -0.976988 -4.177143 -6.854431 -0.947058 1.756743 -3.846968 0.146343 4.784563 -10.679948 -15.680845 51.915490 -78.782330 -15.212275 12.370457 -17.922038 -48.630915 -8.517787 -1.272772 -2.966256 36.053902 -19.458705 -7.711989 103.079257 -28.827661 -94.308303 18.277239 -16.060480 17.727106 9.889716 -42.029818 -9.838453 -1.495642 68.103725 -1.093983 6.359907 4.121978 7.627350 -0.055876 0.191525 -0.007826 -5.290504 -49.566763 1.058410 24.429715 67.467084 21.863389 -14.939581 28.968810 2.752495 0.649490 -15.700499 -5.115271
-17.042917 57.514225 71.412268 -177.967338 -28.882334 -0.636259 3.122353 17.504334 3.421958 0.332515 2.070811 0.240747 0.621959 3.430435 0.436336 3.025618 15.752772 2.307598 -2.472318 15.586318 -0.983510 -4.167411 -6.889333 -0.963446 1.734934 -3.848348 0.144585 4.826363 -10.696521 -15.677789 51.938475 -78.791472 -15.217622 12.367508 -17.903620 -48.627776 -8.511591 -1.268887 -2.955347 36.062324 -19.442028 -7.726275 103.041324 -28.820806 -94.304369 18.294508 -16.058472 17.730959 9.904075 -42.049331 -9.828013 -1.544489 68.111799 -1.141215 6.332069 4.118594 7.641073 -0.030752 0.191370 -0.007860 -5.327634 -49.583772 1.091556 24.383954 67.456929 21.825381 -14.975147 28.948311 2.769237 0.664619 -15.642238 -5.155625
-17.050445 57.506979 71.419961 -177.956572 -28.883827 -0.586593 3.107005 17.509367 3.373404 0.348918 2.072385 0.248201 0.615570 3.427274 0.434984 3.027801 15.749854 2.309482 -2.468580 15.574981 -0.992562 -4.172362 -6.919728 -0.974704 1.746893 -3.855085 0.141134 4.840354 -10.702771 -15.676956 51.931395 -78.794081 -15.204419 12.373837 -17.933530 -48.578478 -8.504055 -1.263085 -2.948500 36.113358 -19.400275 -7.735620 102.986408 -28.804281 -94.333906 18.323360 -16.047918 17.744468 9.980451 -42.046341 -9.918863 -1.541355 68.139356 -1.147210 6.340664 4.094577 7.660415 -0.041023 0.194156 -0.002014 -5.270007 -49.591350 1.012613 24.293165 67.442639 21.745910 -14.994787 28.923356 2.735696 0.665842 -15.566609 -5.143268
-17.045364 57.499578 71.427506 -177.952095 -28.884333 -0.610289 3.118621 17.508949 3.403092 0.357724 2.072113 0.252883 0.616358 3.425832 0.437459 3.026843 15.746951 2.311062 -2.465455 15.560537 -1.002448 -4.170418 -6.948811 -0.990689 1.789193 -3.868501 0.143059 4.832872 -10.697480 -15.686361 51.844971 -78.776719 -15.150074 12.371761 -17.966754 -48.545001 -8.498211 -1.257319 -2.944663 36.122562 -19.376485 -7.744763 102.965243 -28.795637 -94.348786 18.340354 -16.051995 17.780290 9.991159 -42.048139 -9.882447 -1.502008 68.144532 -1.130940 6.301837 4.089021 7.691639 -0.045880 0.192726 -0.005196 -5.294369 -49.593486 1.050754 24.253715 67.441053 21.713009 -14.991100 28.921750 2.762877 0.587069 -15.465596 -5.148463
-17.045919 57.492690 71.433873 -177.944793 -28.894589 -0.602240 3.147652 17.522210 3.426104 0.356994 2.070445 0.253216 0.595984 3.424358 0.426089 3.025343 15.744387 2.312717 -2.442918 15.524772 -1.014534 -4.186470 -6.960549 -1.001757 1.801964 -3.874287 0.140183 4.855822 -10.700585 -15.694190 51.821223 -78.784151 -15.124702 12.366208 -17.972044 -48.541029 -8.492068 -1.253904 -2.938822 36.116356 -19.361043 -7.757138 102.961479 -28.796849 -94.359005 18.341907 -16.049078 17.802306 10.025731 -42.039190 -9.908783 -1.527697 68.161355 -1.151993 6.297878 4.077333 7.702419 -0.043282 0.192758 -0.005560 -5.283115 -49.591295 1.035451 24.221518 67.438959 21.687501 -15.002172 28.894858 2.779196 0.552469 -15.383640 -5.162071
-17.048673 57.482342 71.446355 -177.910418 -28.863745 -0.592070 3.128228 17.498447 3.411136 0.356794 2.069784 0.253441 0.595640 3.423341 0.426441 3.024335 15.742255 2.314493 -2.442449 15.506030 -1.022422 -4.182938 -6.995453 -1.016146 1.816789 -3.882369 0.137540 4.861934 -10.702443 -15.702439 51.785225 -78.798979 -15.072972 12.366517 -17.976764 -48.541181 -8.490532 -1.254531 -2.932647 36.112246 -19.346104 -7.768352 102.958691 -28.810266 -94.367592 18.350059 -16.045104 17.823522 10.054000 -42.072404 -9.958615 -1.512707 68.181047 -1.149312 6.278695 4.065734 7.723872 -0.042512 0.193271 -0.006045 -5.279293 -49.632436 0.995432 24.174253 67.409426 21.666712 -15.106837 28.915496 2.763502 0.596699 -15.322964 -5.208226
-17.044193 57.473356 71.456087 -177.884855 -28.850307 -0.619597 3.131792 17.490962 3.441130 0.346279 2.065621 0.249095 0.606182 3.426497 0.431220 3.011968 15.737933 2.311119 -2.431138 15.489924 -1.026316 -4.182776 -7.031759 -1.026855 1.838453 -3.888651 0.137254 4.844082 -10.700871 -15.707583 51.812417 -78.823611 -15.063993 12.366978 -17.977415 -48.536668 -8.492921 -1.256279 -2.930563 36.124607 -19.324688 -7.765050 102.972988 -28.838727 -94.398315 18.386359 -16.025500 17.840282 10.044758 -42.089994 -9.939589 -1.519137 68.189888 -1.164704 6.261120 4.059898 7.739342 -0.044970 0.192647 -0.006351 -5.329727 -49.669970 1.032208 24.176345 67.408414 21.679468 -15.142431 28.949890 2.748695 0.565450 -15.294208 -5.208940
-17.043880 57.465509 71.463901 -177.872446 -28.850798 -0.613701 3.138401 17.497984 3.445287 0.335148 2.062667 0.242406 0.607660 3.426115 0.432543 3.009955 15.737788 2.311612 -2.418502 15.473359 -1.028790 -4.189729 -7.055333 -1.032741 1.850076 -3.893738 0.136831 4.871218 -10.710109 -15.712537 51.746121 -78.830703 -14.988697 12.374956 -17.958831 -48.556623 -8.478093 -1.252486 -2.927624 36.131016 -19.288134 -7.761261 102.966046 -28.827602 -94.436593 18.400680 -16.019140 17.844961 10.063939 -42.092606 -9.946301 -1.501855 68.206201 -1.171720 6.225298 4.047424 7.765996 -0.046001 0.194283 -0.009864 -5.328607 -49.676819 1.015900 24.165438 67.388515 21.684512 -15.186471 28.953757 2.728705 0.538227 -15.238191 -5.209616
